<svg width="35" height="35" viewBox="0 0 35 35" fill="none" xmlns="http://www.w3.org/2000/svg">
<g id="car" clip-path="url(#clip0_1560_1736)">
<path id="Vector" d="M34.8272 12.0352H30.7345L29.597 9.19141C28.4281 6.26768 25.6383 4.37891 22.489 4.37891H13.8074C10.6587 4.37891 7.86831 6.26768 6.69868 9.19141L5.56118 12.0352H1.46919C0.935298 12.0352 0.543599 12.5369 0.673482 13.0544L1.08364 14.695C1.17456 15.0601 1.50268 15.3164 1.87934 15.3164H3.25131C2.33325 16.1183 1.74194 17.2838 1.74194 18.5977V21.8789C1.74194 22.9809 2.16303 23.9755 2.83569 24.7452V28.4414C2.83569 29.6493 3.81528 30.6289 5.02319 30.6289H7.21069C8.4186 30.6289 9.39819 29.6493 9.39819 28.4414V26.2539H26.8982V28.4414C26.8982 29.6493 27.8778 30.6289 29.0857 30.6289H31.2732C32.4811 30.6289 33.4607 29.6493 33.4607 28.4414V24.7452C34.1334 23.9762 34.5544 22.9815 34.5544 21.8789V18.5977C34.5544 17.2838 33.9631 16.1183 33.0457 15.3164H34.4177C34.7944 15.3164 35.1225 15.0601 35.2134 14.695L35.6236 13.0544C35.7528 12.5369 35.3611 12.0352 34.8272 12.0352ZM10.7606 10.8163C11.2589 9.5708 12.4655 8.75391 13.8074 8.75391H22.489C23.8309 8.75391 25.0375 9.5708 25.5358 10.8163L26.8982 14.2227H9.39819L10.7606 10.8163ZM7.21069 21.8652C5.89819 21.8652 5.02319 20.993 5.02319 19.6846C5.02319 18.3762 5.89819 17.5039 7.21069 17.5039C8.52319 17.5039 10.4919 19.4665 10.4919 20.7749C10.4919 22.0833 8.52319 21.8652 7.21069 21.8652ZM29.0857 21.8652C27.7732 21.8652 25.8044 22.0833 25.8044 20.7749C25.8044 19.4665 27.7732 17.5039 29.0857 17.5039C30.3982 17.5039 31.2732 18.3762 31.2732 19.6846C31.2732 20.993 30.3982 21.8652 29.0857 21.8652Z" fill="#3E89C2"/>
</g>
<defs>
<clipPath id="clip0_1560_1736">
<rect width="35" height="35" fill="white" transform="translate(0.648438 0.00390625)"/>
</clipPath>
</defs>
</svg>
