<svg width="80" height="60" viewBox="0 0 56 55" fill="none" xmlns="http://www.w3.org/2000/svg">
<ellipse cx="28" cy="50" rx="35" ry="5" fill="#E7E7E7"/>
<g id="Alert/exclamation-triangle" clip-path="url(#clip0_2207_105)">
<path id="Vector" d="M54.5381 43.776C56.2845 46.7432 54.0924 50.4523 50.6044 50.4523H5.20087C1.70614 50.4523 -0.47583 46.7375 1.26713 43.776L23.9692 5.19222C25.7164 2.2236 30.0925 2.22898 31.8366 5.19222L54.5381 43.776ZM27.9029 35.7989C25.4993 35.7989 23.5507 37.7089 23.5507 40.0651C23.5507 42.4212 25.4993 44.3313 27.9029 44.3313C30.3066 44.3313 32.2551 42.4212 32.2551 40.0651C32.2551 37.7089 30.3066 35.7989 27.9029 35.7989ZM23.7709 20.4642L24.4727 33.0772C24.5055 33.6675 25.0034 34.1295 25.6064 34.1295H30.1995C30.8024 34.1295 31.3003 33.6675 31.3331 33.0772L32.035 20.4642C32.0704 19.8266 31.5526 19.2906 30.9013 19.2906H24.9044C24.2531 19.2906 23.7354 19.8266 23.7709 20.4642Z" fill="#AA2020"/>
</g>
<defs>
<clipPath id="clip0_2207_105">
<rect width="54.4972" height="53.4201" fill="white" transform="translate(0.654297)"/>
</clipPath>
</defs>
</svg>
