<svg width="122" height="101" viewBox="0 0 122 101" fill="none" xmlns="http://www.w3.org/2000/svg">
<path d="M121.5 92.5C121.5 97.1944 94.4132 101 61 101C27.5868 101 0.5 97.1944 0.5 92.5C0.5 87.8056 27.5868 84 61 84C94.4132 84 121.5 87.8056 121.5 92.5Z" fill="#D9D9D9"/>
<path d="M42.5 6.5L34 4L41.5 15.5L40 21.5L34 24L29 22.5L21 16.5L20.5 23.5L26.5 33.5L39 34L47.5 44.5L21 70L22 83L30.5 85L46 71.5L61 58L88.5 83L98.5 82L99.5 71L74 43L81.5 35L91 34L100.5 26L99.5 16.5L88.5 24L82.5 22.5L80.5 16.5L89 6.5L82.5 5L74 9L72 13.5L71 21.5L61 31.5L50 23.5L48.5 15.5L42.5 6.5Z" fill="#B0B6BE"/>
<path d="M32.375 75.25C32.375 76.975 30.975 78.375 29.25 78.375C27.525 78.375 26.125 76.975 26.125 75.25C26.125 73.525 27.525 72.125 29.25 72.125C30.975 72.125 32.375 73.525 32.375 75.25Z" fill="#7B8084"/>
<path d="M88.625 75.25C88.625 73.525 90.025 72.125 91.75 72.125C93.475 72.125 94.875 73.525 94.875 75.25C94.875 76.975 93.475 78.375 91.75 78.375C90.025 78.375 88.625 76.975 88.625 75.25Z" fill="#7B8084"/>
<path d="M100.828 10.675C99.7875 10.4438 98.6937 10.7594 97.9375 11.5156L88.0062 21.4469L84.7 19.7969L83.05 16.4906L92.9812 6.55938C93.7375 5.80313 94.0563 4.7125 93.8219 3.66875C93.5875 2.625 92.8375 1.77188 91.8312 1.40938C89.6969 0.640625 87.5656 0.25 85.5 0.25C75.1594 0.25 66.75 8.65938 66.75 19C66.75 19.5375 66.7812 20.0531 66.8312 20.5406L60.5 26.8844L54.1688 20.5406C54.2188 20.0531 54.25 19.5375 54.25 19C54.25 8.65938 45.8406 0.25 35.5 0.25C33.4344 0.25 31.3031 0.640625 29.1656 1.4125C28.1594 1.775 27.4094 2.62813 27.175 3.67188C26.9406 4.71562 27.2594 5.80625 28.0156 6.5625L37.9469 16.4937L36.2969 19.7969L32.9906 21.4469L23.0625 11.5156C22.3062 10.7625 21.2156 10.4406 20.1719 10.675C19.1281 10.9094 18.275 11.6594 17.9125 12.6656C17.1406 14.8031 16.75 16.9344 16.75 19C16.75 29.3406 25.1594 37.75 35.5 37.75C36.0563 37.75 36.6313 37.7188 37.2281 37.6562L43.4906 43.9312L20.2781 67.1969C15.5844 71.8906 15.5844 79.5281 20.2781 84.225C24.9688 88.9156 32.6063 88.9219 37.3094 84.225L60.5 60.9781L83.6969 84.225C88.3906 88.9187 96.0312 88.9187 100.725 84.225C105.416 79.5312 105.419 71.8937 100.728 67.2L77.5125 43.9344L83.775 37.6594C84.3688 37.7188 84.9437 37.75 85.5 37.75C95.8406 37.75 104.25 29.3406 104.25 19C104.25 16.9344 103.859 14.8031 103.088 12.6656C102.725 11.6594 101.872 10.9094 100.828 10.675ZM32.8844 79.8063C30.6281 82.0625 26.9562 82.0656 24.6937 79.8063C22.4375 77.5469 22.4375 73.875 24.6969 71.6125L47.9031 48.3531L56.0844 56.55L32.8844 79.8063ZM96.3063 71.6156C98.5625 73.875 98.5625 77.5469 96.3063 79.8063C94.05 82.0625 90.375 82.0656 88.1188 79.8063C76.4188 68.0813 52.4375 44.05 40.5469 32.1312C39.8125 31.3969 38.7687 31.0781 37.7687 31.2656C36.9 31.425 36.1781 31.5 35.5 31.5C29.0688 31.5 23.7594 26.6187 23.075 20.3687L30.1656 27.4594C31.1156 28.4094 32.5687 28.6438 33.7719 28.0469L40.0219 24.9219C40.625 24.6188 41.1188 24.1281 41.4188 23.525L44.5438 17.275C45.1437 16.0719 44.9094 14.6188 43.9562 13.6688L36.8687 6.575C43.1187 7.25938 48 12.5688 48 19C48 19.7219 47.8875 20.4781 47.7781 21.1219C47.6063 22.1187 47.9312 23.1406 48.6469 23.8562C74.6813 49.9469 93.1813 68.4875 96.3063 71.6156C96.3031 71.6125 96.3031 71.6125 96.3063 71.6156ZM85.5 31.5C84.8219 31.5 84.1 31.425 83.2312 31.2656C82.2219 31.0719 81.1813 31.4031 80.4531 32.1312L73.0938 39.5063L64.9125 31.3094L72.3531 23.8562C73.0687 23.1406 73.3937 22.1187 73.2219 21.1219C73.1125 20.4781 73 19.7219 73 19C73 12.5688 77.8812 7.25938 84.1312 6.575L77.0406 13.6656C76.0906 14.6156 75.8531 16.0688 76.4531 17.2719L79.5781 23.5219C79.8812 24.125 80.3719 24.6188 80.975 24.9188L87.225 28.0438C88.4313 28.6469 89.8844 28.4063 90.8312 27.4563L97.9219 20.3656C97.2406 26.6187 91.9313 31.5 85.5 31.5Z" fill="#7B8084"/>
</svg>
